<svg xmlns="http://www.w3.org/2000/svg" viewBox="0 0 188.135 188.135"><path d="M94.068 188.135c-51.869 0-94.067-42.198-94.067-94.068S42.199 0 94.068 0s94.067 42.198 94.067 94.067-42.196 94.068-94.067 94.068zM94.068 3C43.854 3 3.001 43.853 3.001 94.067s40.853 91.067 91.067 91.067 91.067-40.853 91.067-91.067S144.284 3 94.068 3zM82.635 128.067h-19v-63h19v63zm-16-3h13v-57h-13v57zm41.053 18.569l-27.052-17.197v-60.21l27-19.986.052 97.393zM83.636 124.79l21.015 13.359-.015-2.222V52.196l-21 15.545v57.049zm38.04 2.994L68.343 47.137l2.501-1.654 53.333 80.647-2.501 1.654z"/></svg>